<svg xmlns="http://www.w3.org/2000/svg" viewBox="0 -6 690 292" width="690" height="292" role="img" aria-label="Seazo">
  <title>Seazo</title>
  <defs>
    <linearGradient id="rose" x1="0" y1="0" x2="1" y2="1">
      <stop offset="0" stop-color="#E0AEA2"/><stop offset=".55" stop-color="#D59F93"/><stop offset="1" stop-color="#BF8474"/>
    </linearGradient>
    <filter id="rough" x="-5%" y="-5%" width="110%" height="110%">
      <feTurbulence type="fractalNoise" baseFrequency=".9" numOctaves="2" seed="3"/>
      <feDisplacementMap in="SourceGraphic" scale="2.2"/>
    </filter>
  </defs>
  <g><path d="M181,63L175,61L170,59L166,57L161,56L156,55L152,54L147,53L142,53L137,52L132,52L128,52L123,51L118,50L114,49L109,48L104,48L99,48L95,48L90,48L85,49L81,50L77,51L72,53L70,57L68,61L67,65L66,69L67,72L67,74L68,76L70,77L71,78L71,78L72,79L73,80L74,82L76,84L77,86L79,88L82,90L85,92L88,95L92,97L95,100L99,102L104,105L108,107L112,109L117,112L122,114L126,116L131,119L136,121L140,123L145,125L152,129L158,133L164,137L170,142L175,147L180,153L184,159L187,165L190,171L192,178L193,185L194,192L194,198L194,205L192,212L190,218L187,224L183,230L179,235L175,239L170,244L164,248L159,251L154,255L148,259L142,263L136,266L130,269L125,270L120,271L115,272L110,273L105,274L100,274L95,274L90,274L85,273L80,272L75,271L70,270L65,269L61,267L57,265L52,263L59,246L63,247L67,248L71,249L75,249L79,249L83,250L86,250L90,250L94,250L98,249L102,249L106,248L110,248L114,247L118,246L122,245L127,243L132,242L137,240L142,238L146,235L149,231L150,227L152,223L152,220L153,216L153,213L152,210L152,207L151,204L150,201L149,198L148,196L147,193L146,190L144,188L142,185L140,182L138,180L136,177L133,174L130,172L127,169L123,167L119,165L115,162L111,160L106,158L101,156L96,153L92,151L87,148L81,146L76,143L71,140L66,137L61,134L57,131L52,128L47,124L43,120L39,116L35,111L31,106L28,100L26,93L25,87L25,80L26,73L29,66L32,60L36,54L41,48L47,43L52,39L58,35L63,30L68,26L74,22L80,19L86,16L93,14L100,12L107,10L114,10L121,9L128,10L135,10L142,13L149,16L155,19L161,23L166,28L171,32L175,37L179,43L181,49L183,55L183,61Z" fill="url(#rose)"/><path d="M161,56L156,55L151,55L146,54L142,53L137,53L132,53L127,53L123,52L118,51L114,50L109,49L104,49L99,49L95,49L90,49L86,50L81,50L77,52L73,53L71,57L69,61L68,65L67,69L68,72L69,75L70,76L71,77L72,78L73,78L73,79L74,80L75,81L77,83L78,85L80,87L83,89L86,91L89,94L92,96L96,99L100,101L104,103L109,106L113,108L118,111L122,113L127,115L132,117L136,120L141,122L146,124L152,128L159,132L165,136L171,141L176,146L181,152L185,158L188,164L191,171L193,178L195,184L195,191L195,198L195,205L193,212L191,218L188,224L184,230L180,235L175,240L170,244L165,248L159,251L154,256L149,260L142,264L136,267L130,269L125,271L120,272L115,273L110,274L105,274L100,275L95,275L90,274L85,274L80,273L75,272L70,271L65,269L66,267L70,269L75,270L80,271L85,272L90,272L95,273L100,273L105,272L110,272L115,271L119,270L124,269L129,267L135,265L142,262L148,258L153,254L158,250L164,247L169,243L173,239L178,234L182,229L185,223L188,218L190,211L191,205L192,199L192,192L191,185L190,179L187,172L185,166L181,160L177,154L173,149L168,144L163,139L157,135L150,131L144,128L139,125L135,123L130,121L125,118L121,116L116,114L111,112L107,109L102,107L98,104L94,102L90,99L87,97L83,94L80,92L78,90L76,87L74,85L72,83L71,82L70,80L69,79L68,78L67,77L66,76L65,74L65,71L65,68L66,64L67,60L69,56L72,52L76,50L80,49L85,47L89,47L94,46L99,46L104,46L109,46L114,47L118,47L123,48L128,50L133,50L138,50L143,51L147,51L152,52L157,54L162,55Z" fill="url(#rose)" opacity="0.88"/><path d="M147,52L143,51L138,50L133,50L128,50L123,49L118,48L114,47L109,46L104,46L99,46L94,46L89,47L85,48L80,49L76,50L72,52L69,56L67,60L66,64L65,68L65,71L66,74L66,76L67,77L68,78L69,79L70,80L71,82L72,83L74,85L76,87L78,90L80,92L83,94L87,97L90,99L94,102L98,104L103,107L107,109L111,111L116,114L121,116L125,118L130,121L135,123L139,125L144,127L150,131L157,135L163,139L168,144L173,149L178,154L182,160L185,166L188,172L190,179L191,185L192,192L192,199L191,205L190,211L188,218L185,223L182,229L178,234L174,239L169,243L164,247L158,250L153,254L148,258L142,262L135,265L129,267L124,269L119,270L115,271L110,272L105,272L100,273L95,273L90,272L85,272L80,271L75,270L70,269L66,268L61,266L59,265L59,264L62,265L66,266L71,268L75,269L80,270L85,271L90,271L95,271L99,271L104,271L109,271L114,270L119,269L124,268L129,266L135,264L141,261L147,257L153,253L157,249L163,246L168,242L172,238L176,233L180,228L183,223L186,217L188,211L189,205L190,199L190,192L189,186L187,180L185,173L183,167L179,161L176,156L171,151L166,146L161,141L155,137L149,133L143,130L138,127L134,125L129,123L124,121L120,118L115,116L110,114L106,111L101,109L97,106L93,104L89,101L85,99L82,96L79,94L76,91L74,89L72,87L70,85L69,83L68,81L67,80L66,79L65,77L64,76L64,74L63,71L63,67L64,63L66,59L68,55L71,51L75,49L80,47L84,46L89,45L94,45L99,44L104,44L109,44L114,45L119,45L123,46L128,48L133,48L138,48L143,49L148,50Z" fill="url(#rose)" opacity="0.79"/><path d="M146,50L141,49L136,48L131,48L126,47L121,46L116,45L111,45L106,44L101,44L96,45L91,45L87,46L82,47L78,48L73,50L70,53L67,57L65,61L64,65L63,70L63,72L64,75L65,77L66,78L67,79L68,81L69,82L70,84L71,86L73,88L75,90L78,92L81,95L84,97L87,100L91,102L95,105L99,107L104,110L108,112L113,115L117,117L122,119L127,121L131,124L136,126L141,128L146,131L152,135L158,139L164,143L169,148L174,153L178,158L181,164L184,170L187,176L188,183L190,189L190,195L190,202L189,208L187,214L185,220L182,226L179,231L175,236L170,240L165,244L160,248L155,251L150,255L144,259L138,263L131,265L127,267L122,268L117,270L112,270L107,271L102,271L97,272L92,271L87,271L82,271L78,270L73,269L68,267L64,266L64,265L69,266L73,267L78,268L83,269L87,270L92,270L97,270L102,270L107,269L112,269L116,268L121,267L126,265L131,264L137,261L144,258L149,254L154,250L159,247L164,243L169,239L173,235L177,230L180,225L183,219L185,214L186,208L187,202L187,196L187,190L185,184L184,177L181,172L178,166L175,160L171,155L167,150L162,145L156,141L151,137L144,134L139,131L135,129L130,126L125,124L121,122L116,120L111,117L107,115L102,113L98,110L94,108L89,105L86,103L82,100L79,97L76,95L73,92L71,90L69,88L67,86L66,84L65,82L64,80L63,78L62,77L61,74L61,72L61,69L62,64L64,60L66,56L69,52L72,49L77,47L81,45L86,44L91,43L96,42L101,42L106,42L111,42L116,43L121,43L126,44L131,45L136,46L142,47L147,48Z" fill="url(#rose)" opacity="0.72"/><path d="M170,56L165,54L161,52L156,51L151,49L146,48L141,47L136,47L131,46L126,45L121,44L116,43L111,43L106,43L101,43L96,43L91,44L86,44L81,46L77,47L72,49L69,52L66,56L64,60L63,65L61,69L62,72L62,74L63,77L64,78L64,80L65,81L66,83L68,85L69,87L71,89L74,92L76,94L79,97L82,99L86,102L90,104L94,107L98,109L103,112L107,114L112,117L116,119L121,121L126,123L130,126L135,128L139,130L145,133L151,137L157,140L162,145L167,150L172,155L176,160L179,165L182,171L184,177L186,183L187,189L188,196L188,202L187,208L185,214L183,220L180,225L177,230L173,235L169,239L165,243L160,247L154,250L149,255L144,258L138,262L131,264L126,266L121,267L117,268L112,269L107,270L102,270L97,270L92,270L87,270L83,269L78,269L73,268L69,266L64,265L60,263L55,261L53,260L54,259L56,260L60,262L64,263L69,265L73,266L78,267L83,268L87,268L92,269L97,269L102,269L107,268L111,268L116,267L121,266L126,264L130,263L137,260L143,257L149,253L154,249L159,246L163,242L168,238L172,234L175,229L178,224L181,219L183,213L184,208L185,202L185,196L184,190L183,184L181,178L179,173L176,167L173,162L169,157L165,152L160,147L155,143L149,139L143,136L138,133L134,131L129,129L124,126L120,124L115,122L110,119L106,117L101,115L97,112L92,110L88,107L84,105L81,102L77,99L74,97L71,94L69,92L67,89L65,87L63,85L62,83L61,81L60,79L60,77L59,74L59,71L59,68L61,63L63,59L65,55L68,51L71,48L76,46L81,44L85,42L90,41L95,41L101,40L106,40L111,40L116,41L121,41L127,42L132,43L137,44L142,45L147,46L152,47L157,49L162,51L166,53L171,55Z" fill="url(#rose)" opacity="0.76"/><path d="M168,54L164,52L159,50L154,49L149,47L145,46L139,45L134,44L129,44L124,42L119,42L114,41L108,41L103,41L98,41L93,42L88,42L83,44L78,45L74,47L70,49L67,53L64,57L62,61L60,66L60,70L60,73L60,75L61,78L62,80L63,81L64,83L65,85L66,88L68,90L71,92L73,95L76,97L79,100L83,103L87,105L91,108L95,110L99,113L104,115L108,118L113,120L118,122L122,125L127,127L132,129L136,131L141,134L147,137L153,140L158,145L163,149L168,154L172,159L175,164L178,169L181,175L183,181L184,187L185,193L186,199L185,205L184,211L182,216L180,222L177,227L174,232L170,236L166,240L161,244L156,248L151,252L146,255L140,259L134,262L128,264L123,265L119,267L114,268L109,268L104,269L99,269L95,269L90,269L85,268L80,268L76,267L71,266L67,265L62,263L58,261L54,259L54,258L58,260L63,262L67,263L71,264L76,265L80,266L85,267L90,267L95,267L99,267L104,267L109,266L114,266L118,265L123,264L128,262L133,260L139,257L145,254L151,250L155,247L160,243L164,239L168,235L172,231L175,226L177,221L179,216L181,210L182,205L182,199L182,193L181,188L180,182L178,177L175,171L172,166L169,161L165,156L161,152L156,147L151,143L145,140L139,137L135,134L130,132L125,130L121,128L116,125L111,123L107,121L102,118L98,116L93,113L89,111L85,108L81,106L77,103L74,100L71,98L68,95L66,92L63,90L62,87L60,85L59,83L58,80L57,78L57,75L57,72L57,69L58,65L60,60L62,56L65,52L69,48L73,45L78,43L82,42L87,40L92,39L98,38L103,38L108,38L114,38L119,39L124,39L130,40L135,41L140,42L145,43L151,45L155,47L160,49L165,51L169,53Z" fill="url(#rose)" opacity="0.97"/><path d="M155,47L150,46L145,44L140,43L135,42L129,42L124,40L119,40L114,39L108,39L103,39L98,39L93,40L88,41L83,42L78,44L73,46L69,48L66,52L63,56L61,61L59,65L58,69L58,72L58,75L59,78L59,80L60,82L61,84L63,87L65,89L67,91L69,94L72,97L75,99L78,102L82,105L85,107L90,110L94,112L98,115L103,117L107,120L112,122L117,124L121,127L126,129L131,131L135,133L140,136L146,139L151,142L157,146L161,151L166,155L170,160L173,165L176,171L179,176L181,182L182,187L183,193L183,199L183,205L182,210L181,216L178,221L176,226L173,231L169,236L165,240L160,244L156,247L151,251L146,254L140,258L133,261L128,263L123,264L118,265L114,266L109,267L104,268L99,268L95,268L90,268L85,267L80,267L76,266L71,265L67,264L62,262L58,260L54,259L50,257L46,254L42,252L38,249L39,249L43,251L46,253L50,256L54,257L58,259L63,261L67,262L72,263L76,264L81,265L85,266L90,266L95,266L99,266L104,266L109,265L113,265L118,264L123,263L127,261L133,259L139,256L145,253L150,250L155,246L159,242L164,239L167,234L171,230L174,225L176,221L178,215L179,210L180,205L180,199L180,194L179,188L178,183L176,177L174,172L171,167L167,162L163,157L159,153L155,149L149,145L144,141L138,138L134,136L129,134L125,132L120,129L115,127L111,125L106,122L101,120L97,117L92,115L88,112L84,110L80,107L76,105L73,102L69,99L67,96L64,94L62,91L60,88L59,86L57,83L56,81L56,78L55,75L55,72L56,68L57,64L59,59L62,55L65,51L68,47L72,45L77,42L82,41L87,39L92,38L97,37L103,37L108,36L114,37L119,37L125,38L130,39L135,40L141,41L146,42L151,44L156,46Z" fill="url(#rose)" opacity="0.96"/><path d="M148,43L143,42L138,41L133,40L127,39L122,38L116,37L111,37L105,37L100,37L95,38L90,39L85,40L80,42L75,44L70,46L67,49L63,53L61,58L58,62L57,67L56,70L56,74L56,77L57,79L58,82L59,84L60,87L62,89L64,92L66,94L69,97L71,100L75,103L78,105L82,108L86,110L90,113L95,116L99,118L104,120L109,123L113,125L118,127L123,130L127,132L132,134L136,136L141,139L147,142L153,146L157,150L162,155L166,159L170,164L173,169L176,174L178,180L179,185L181,191L181,196L181,202L181,207L179,213L178,218L176,223L173,228L170,233L166,237L162,241L157,244L153,248L148,252L142,255L136,258L130,261L125,262L120,264L116,265L111,266L106,266L102,267L97,267L92,267L88,266L83,266L78,265L74,264L69,263L65,262L61,260L56,259L54,258L55,257L57,258L61,259L65,261L69,262L74,263L78,264L83,265L88,265L92,265L97,265L102,265L106,265L111,264L115,263L120,262L125,261L129,260L136,257L142,254L147,251L152,247L157,244L161,240L165,236L168,232L171,227L174,223L176,218L177,213L178,207L179,202L179,197L178,191L177,186L175,181L173,175L171,170L168,165L164,161L160,156L156,152L151,148L146,145L140,141L135,139L131,136L126,134L122,132L117,130L112,127L108,125L103,123L98,120L94,118L89,115L85,113L81,110L77,107L73,105L70,102L67,99L64,96L62,93L60,91L58,88L56,85L55,82L54,79L54,77L54,73L54,70L55,66L57,61L59,57L62,52L66,49L70,45L74,43L79,41L84,39L89,37L94,36L100,36L105,35L111,35L116,35L122,36L128,37L133,38L138,39L144,40L149,42Z" fill="url(#rose)" opacity="0.62"/><path d="M166,50L161,47L156,45L151,43L146,41L141,40L136,39L130,38L125,37L119,36L114,35L108,35L103,36L97,36L92,37L87,38L82,40L77,42L72,44L68,47L64,51L61,55L58,59L56,64L55,68L54,72L54,75L54,78L55,81L56,84L57,86L59,89L61,92L63,95L66,97L68,100L72,103L75,106L79,108L83,111L87,114L92,116L96,119L101,121L105,124L110,126L115,128L119,131L124,133L129,135L133,137L137,139L143,143L149,146L154,150L158,154L162,158L166,163L169,168L172,173L175,178L177,183L178,188L179,194L179,199L179,205L178,210L177,215L175,220L173,225L170,230L167,234L163,238L159,242L154,245L150,249L145,253L139,256L133,259L127,260L122,262L118,263L113,264L109,265L104,265L99,266L95,266L90,265L85,265L81,265L76,264L72,263L67,262L63,260L59,259L55,257L50,255L47,253L43,251L39,248L35,246L32,243L30,241L31,241L32,242L36,245L39,248L43,250L47,252L51,254L55,256L59,258L63,259L68,261L72,262L76,263L81,263L85,264L90,264L95,264L99,264L104,264L108,263L113,263L118,262L122,261L127,259L132,257L138,255L144,251L149,248L154,245L158,241L162,237L166,233L169,229L171,224L173,220L175,215L176,210L177,205L177,199L176,194L175,189L174,184L172,179L170,174L167,169L164,165L160,160L156,156L152,152L147,148L142,145L136,142L132,140L127,137L123,135L118,133L114,131L109,128L104,126L99,123L95,121L90,118L86,116L82,113L78,111L74,108L70,105L67,102L64,99L61,96L59,93L57,90L55,87L54,84L53,81L52,78L52,75L52,71L53,67L54,63L57,58L60,54L63,50L67,46L71,43L76,40L81,38L86,37L91,35L97,34L102,33L108,33L114,33L119,34L125,34L131,35L136,36L142,38L147,39L152,41L157,43L162,46L167,49Z" fill="url(#rose)" opacity="0.80"/><path d="M173,53L169,50L164,47L160,45L155,42L150,40L144,39L139,37L133,36L128,35L122,34L117,34L111,33L105,34L100,34L94,35L89,36L84,38L78,39L74,42L69,44L65,48L61,52L58,56L56,61L54,66L53,69L52,73L52,76L53,80L53,83L54,86L56,89L58,92L60,95L62,98L65,101L69,103L72,106L76,109L80,112L84,114L88,117L93,119L97,122L102,124L107,127L111,129L116,131L121,134L125,136L130,138L134,140L139,143L145,146L150,150L154,154L159,158L162,162L166,167L169,171L171,176L173,181L175,186L176,192L177,197L177,202L177,207L176,212L174,217L172,222L170,227L167,231L164,235L160,239L156,243L151,246L147,250L141,253L135,256L129,259L124,260L120,261L115,262L111,263L106,264L101,264L97,264L92,264L88,264L83,264L79,263L74,262L70,261L65,260L61,259L57,257L55,256L55,255L57,256L62,257L66,259L70,260L74,261L79,261L83,262L88,262L92,262L97,262L101,262L106,262L110,261L115,260L119,259L124,258L128,257L135,254L140,252L146,249L151,245L155,242L159,238L162,234L165,230L168,226L170,221L172,216L173,212L173,207L174,202L173,197L173,192L172,187L170,183L168,178L166,173L163,169L159,165L156,160L152,157L147,153L143,149L137,146L133,144L128,141L124,139L119,137L114,135L110,132L105,130L100,128L96,125L91,123L86,120L82,117L78,115L74,112L70,109L66,106L63,103L60,100L57,97L55,94L53,91L51,87L50,84L49,80L49,76L49,73L50,69L51,64L53,59L56,55L60,50L64,46L68,43L73,40L78,37L83,35L88,34L94,32L99,31L105,31L111,30L117,30L123,31L128,32L134,33L140,34L145,36L151,38L156,40L161,43L165,46L170,49L174,52Z" fill="url(#rose)" opacity="0.80"/><path d="M169,49L165,46L160,43L156,41L150,39L145,37L140,35L134,34L128,33L122,32L117,31L111,31L105,31L99,32L94,33L88,34L83,36L78,38L73,40L68,43L64,47L60,51L57,55L54,60L52,65L51,69L50,73L50,76L50,80L51,83L52,87L54,90L55,93L58,96L60,99L63,103L67,105L70,108L74,111L78,114L82,117L87,119L91,122L96,124L101,127L105,129L110,131L115,134L120,136L124,138L129,141L133,143L138,145L143,148L148,152L153,156L157,160L160,164L164,168L167,173L169,177L171,182L173,187L174,192L174,197L175,202L174,207L174,212L172,217L171,221L168,226L166,230L163,234L159,238L155,242L151,246L146,249L141,252L135,255L128,257L124,259L120,260L115,261L110,262L106,262L101,263L97,263L92,263L88,263L83,262L79,262L74,261L70,260L66,259L61,258L57,256L53,254L49,253L45,250L42,248L38,246L34,243L31,240L28,238L25,234L23,233L24,233L25,234L28,237L31,240L35,243L38,245L42,248L46,250L50,252L54,254L58,255L62,257L66,258L70,259L75,260L79,261L83,261L88,262L92,262L97,262L101,261L106,261L110,260L115,260L119,259L124,257L128,256L134,254L140,251L145,248L150,245L154,241L158,237L162,233L164,229L167,225L169,221L170,216L171,211L172,207L172,202L172,197L171,193L170,188L168,183L167,179L164,174L161,170L158,166L155,162L151,158L146,154L142,151L137,148L132,145L128,143L123,141L118,138L114,136L109,134L104,131L100,129L95,127L90,124L86,121L81,119L77,116L73,113L69,110L65,108L62,104L58,101L56,98L53,95L51,91L49,88L48,84L48,80L47,76L48,72L48,68L50,64L53,59L56,54L59,50L63,46L68,42L72,39L77,37L82,34L88,33L93,31L99,30L105,29L111,29L117,29L123,30L129,30L134,31L140,33L146,35L151,37L156,39L161,42L166,45L170,48Z" fill="url(#rose)" opacity="0.57"/><path d="M156,39L151,37L146,35L140,33L134,32L129,31L123,30L117,29L111,29L105,30L99,30L93,31L88,33L82,35L77,37L72,39L68,42L63,46L59,50L56,54L53,59L50,64L49,68L48,72L48,76L48,80L49,84L50,88L51,91L54,95L56,98L59,101L62,104L65,107L69,110L73,113L77,116L81,119L86,121L90,124L95,126L100,129L104,131L109,133L114,136L119,138L123,140L128,143L132,145L137,147L142,150L147,154L151,157L155,161L159,165L162,170L164,174L167,178L169,183L170,188L171,193L172,197L172,202L172,207L172,212L171,216L169,221L167,225L165,229L162,234L158,238L155,241L150,245L145,248L140,251L134,254L128,256L124,258L119,259L115,260L110,261L106,261L101,262L97,262L92,262L88,262L83,261L79,261L75,260L70,259L66,258L62,257L58,255L54,254L50,252L46,250L42,248L38,245L35,243L31,240L28,237L25,234L22,231L22,231L25,234L28,237L32,240L35,242L39,245L42,247L46,249L50,251L54,253L58,254L62,256L66,257L70,258L75,259L79,260L83,260L88,260L92,261L97,261L101,260L106,260L110,259L114,258L119,257L123,256L128,255L134,253L140,250L145,247L150,244L154,240L157,237L161,233L163,229L166,224L167,220L169,216L170,211L170,207L170,202L170,198L169,193L168,188L166,184L165,180L162,175L160,171L157,167L153,163L149,159L145,156L141,152L136,149L131,147L127,145L122,142L118,140L113,138L108,136L103,133L99,131L94,128L89,126L85,123L80,121L76,118L71,115L67,112L64,109L60,106L57,103L54,100L51,96L49,92L47,89L46,85L46,81L45,76L46,72L47,68L48,63L51,58L55,53L58,49L63,45L67,41L72,38L77,35L82,33L87,31L93,30L99,28L105,28L111,27L117,27L123,28L129,29L135,30L141,31L146,33L152,35L157,38Z" fill="url(#rose)" opacity="0.78"/><path d="M169,46L164,43L159,40L154,37L149,35L143,33L138,31L132,29L126,28L120,28L114,28L108,28L102,28L96,29L90,31L85,32L79,34L74,37L69,40L65,43L61,47L57,51L53,56L50,61L48,66L47,70L46,74L46,79L46,83L47,87L49,90L51,94L53,98L56,101L59,104L62,107L66,110L70,113L74,116L78,119L82,122L87,124L92,127L96,129L101,132L106,134L111,136L115,139L120,141L125,143L129,145L133,148L138,151L143,154L147,157L152,161L155,165L158,169L161,173L164,177L166,182L168,186L169,191L170,195L170,200L171,204L170,209L170,213L168,218L167,222L165,227L162,231L159,235L156,239L152,242L147,246L142,249L137,252L131,254L126,256L121,257L117,258L112,259L108,260L103,260L99,261L94,261L90,261L86,261L81,260L77,260L73,259L68,258L64,257L60,255L56,254L52,252L52,251L56,253L60,254L64,256L69,257L73,258L77,258L81,259L86,259L90,259L94,259L99,259L103,259L108,258L112,258L116,257L121,256L125,255L130,253L136,250L142,248L147,245L151,242L155,238L158,234L161,230L163,226L165,222L167,217L167,213L168,209L168,204L168,200L167,196L166,191L165,187L164,183L161,178L159,174L156,170L153,167L150,163L146,159L142,156L137,153L132,150L128,148L123,146L119,143L114,141L110,139L105,136L100,134L95,132L90,129L86,126L81,124L77,121L72,118L68,115L64,112L60,109L57,106L54,103L51,99L48,95L46,91L45,87L44,83L43,79L44,74L44,70L46,65L48,60L52,55L55,50L60,46L64,42L69,39L73,36L79,33L84,31L90,29L96,27L102,26L108,26L114,26L120,26L126,26L132,27L138,29L144,30L150,33L155,35L160,38L165,41L169,45Z" fill="url(#rose)" opacity="0.74"/><path d="M158,37L152,34L147,32L141,30L135,28L129,27L123,26L117,26L111,26L105,26L99,27L93,28L87,30L81,32L76,34L71,37L66,41L62,44L58,48L54,52L50,57L47,63L45,67L44,72L44,76L44,81L44,85L46,89L47,93L50,97L52,101L55,104L59,108L62,111L66,114L70,117L75,120L79,122L84,125L88,128L93,130L98,133L103,135L107,137L112,140L117,142L121,144L126,146L130,149L135,151L139,154L144,157L148,161L152,164L155,168L158,172L160,176L163,180L165,185L166,189L167,193L168,198L168,202L168,206L168,211L167,215L166,220L164,224L162,228L160,232L157,236L153,240L149,243L144,246L139,249L133,252L127,254L123,255L119,256L114,257L110,258L105,259L101,259L97,260L92,260L88,259L84,259L79,259L75,258L71,257L66,256L62,255L60,254L61,253L63,254L67,255L71,256L75,257L79,257L84,258L88,258L92,258L97,258L101,258L105,257L110,257L114,256L118,255L123,254L127,252L133,250L138,248L144,245L148,242L152,239L156,235L158,231L161,227L163,223L164,219L165,215L166,210L166,206L166,202L165,198L164,194L163,190L162,186L160,182L158,178L155,174L153,170L149,167L146,163L142,160L138,157L133,154L129,151L124,149L120,147L115,145L111,142L106,140L101,138L96,135L92,133L87,130L82,128L77,125L73,122L69,119L64,116L60,113L57,110L53,106L50,103L47,99L45,95L43,90L42,86L41,81L41,76L42,72L43,67L45,62L48,56L52,51L56,47L61,43L66,39L70,36L75,33L81,30L86,28L92,26L98,25L104,24L111,23L117,23L123,24L130,24L136,25L142,27L148,30L153,32L158,35Z" fill="url(#rose)" opacity="0.96"/><path d="M158,36L153,33L147,30L142,28L136,26L129,25L123,24L117,24L111,24L104,25L98,25L92,27L87,28L81,31L76,33L70,36L66,40L61,43L57,47L53,52L49,57L46,62L44,67L42,72L42,76L42,81L42,86L44,90L45,94L48,98L51,102L54,106L57,109L61,112L65,116L69,118L73,121L78,124L82,127L87,129L92,132L97,134L102,137L106,139L111,142L116,144L120,146L125,148L129,150L134,153L138,156L142,159L146,162L150,166L153,170L156,173L159,177L161,181L163,185L164,190L165,194L166,198L166,202L166,206L166,211L166,215L165,219L163,223L161,227L159,231L156,235L153,239L149,243L144,246L139,248L133,251L127,253L123,254L118,255L114,256L110,257L105,258L101,258L97,258L92,259L88,258L84,258L79,258L75,257L71,256L67,255L63,254L58,253L54,251L51,250L47,248L47,247L51,249L55,250L59,252L63,253L67,254L71,255L75,255L80,256L84,256L88,257L92,257L97,257L101,256L105,256L109,255L114,254L118,253L122,252L126,251L132,249L138,247L143,244L148,241L151,238L155,234L157,230L159,226L161,222L162,218L163,214L163,210L163,206L163,202L162,198L162,194L161,191L159,187L157,183L155,179L153,176L150,172L147,169L144,165L140,162L136,159L132,156L127,154L123,152L119,149L114,147L110,145L105,142L100,140L95,138L90,135L85,133L81,130L76,127L71,124L67,122L63,119L59,115L55,112L51,108L48,105L45,101L42,96L40,92L39,87L38,82L38,76L39,71L41,66L43,61L47,55L51,50L55,46L60,42L65,38L69,35L75,31L80,28L86,26L92,24L98,23L104,22L111,21L117,21L124,21L130,22L136,23L142,25L148,27L154,30L159,33Z" fill="url(#rose)" opacity="0.78"/><path d="M148,28L142,26L136,24L130,23L123,22L117,22L111,22L104,22L98,23L92,25L86,27L80,29L75,32L70,35L65,39L60,42L56,46L51,51L47,56L44,61L42,66L40,71L39,76L39,81L40,86L41,91L43,96L46,100L49,104L52,108L55,111L59,114L63,118L68,121L72,124L77,126L81,129L86,132L91,134L96,137L100,139L105,142L110,144L115,146L119,148L124,151L128,153L132,155L137,158L141,161L145,164L148,168L151,171L154,175L156,179L158,183L160,186L162,190L163,194L163,198L164,202L164,206L164,210L164,214L163,218L162,222L160,226L158,230L155,234L152,238L148,242L143,244L138,247L133,249L126,252L122,253L118,254L114,255L109,256L105,256L101,257L97,257L92,257L88,257L84,257L80,256L75,256L71,255L67,254L63,253L59,252L57,251L57,250L59,251L63,252L67,253L71,254L76,254L80,255L84,255L88,255L92,256L97,255L101,255L105,255L109,254L113,253L118,252L122,251L126,250L132,248L137,246L142,243L147,241L151,237L154,233L156,229L158,225L160,221L161,217L161,214L161,210L161,206L161,202L160,198L160,195L158,191L157,188L155,184L153,180L151,177L148,174L146,170L142,167L139,164L135,161L131,158L126,156L122,153L118,151L113,149L109,147L104,144L99,142L94,140L89,137L84,135L80,132L75,129L70,126L66,123L61,120L57,117L53,114L49,110L46,106L43,102L40,97L38,92L37,87L36,82L36,76L37,71L39,66L42,60L45,55L50,49L54,45L59,41L64,37L69,34L74,30L80,27L85,25L91,23L98,21L104,20L111,19L117,19L124,19L130,20L137,21L143,23L149,26Z" fill="url(#rose)" opacity="0.87"/><path d="M169,40L165,36L160,33L154,29L149,27L143,24L137,22L130,21L124,20L117,20L111,20L104,21L98,22L92,23L86,25L80,28L74,31L69,34L64,38L60,42L55,45L50,50L46,55L42,61L40,66L38,71L37,76L37,82L38,87L39,92L41,97L44,101L47,105L50,109L54,113L58,116L62,119L66,122L71,125L75,128L80,131L85,134L90,136L95,139L99,141L104,143L109,146L114,148L118,150L123,153L127,155L131,157L136,160L139,163L143,166L146,169L149,173L152,176L154,180L156,184L158,187L159,191L161,195L161,198L162,202L162,206L162,210L162,214L161,218L160,222L159,226L157,230L154,234L151,237L147,241L143,244L138,246L132,248L126,250L122,252L118,253L114,254L109,255L105,255L101,256L97,256L92,256L88,256L84,256L80,255L75,255L71,254L67,253L63,252L61,252L62,251L64,251L68,252L72,253L76,254L80,254L84,254L88,254L92,255L97,254L101,254L105,254L109,253L113,252L117,251L121,250L126,249L132,247L137,245L142,242L147,240L150,236L153,233L155,229L157,225L158,221L159,217L160,213L160,209L160,206L159,202L159,199L158,195L157,192L155,188L154,185L152,181L149,178L147,175L144,172L141,168L138,165L134,163L130,160L125,157L121,155L117,153L112,151L108,148L103,146L98,144L93,141L88,139L83,136L79,134L74,131L69,128L65,125L60,122L56,119L52,115L48,111L44,107L41,103L38,98L36,93L35,88L34,82L34,76L36,71L37,65L40,60L44,54L49,49L53,44L58,40L63,37L68,33L74,29L79,26L85,23L91,21L98,20L104,18L111,18L117,17L124,18L131,18L137,19L143,22L149,24L155,27L161,31L166,35L170,39Z" fill="url(#rose)" opacity="0.73"/><path d="M176,46L172,41L168,37L163,33L158,29L152,26L146,23L140,21L134,19L127,18L121,18L114,18L107,18L101,19L94,21L88,22L82,25L76,28L71,31L66,35L61,39L56,42L51,47L47,51L42,57L39,63L37,68L35,74L35,79L35,85L36,90L38,96L40,100L43,105L46,109L50,113L54,117L58,120L62,123L67,126L72,129L76,132L81,135L86,137L91,140L96,142L101,145L106,147L110,149L115,152L119,154L124,156L128,158L132,161L136,164L140,167L143,170L146,173L148,176L151,180L153,183L155,186L156,190L157,193L158,197L159,200L160,204L160,208L160,211L160,215L159,219L158,223L156,227L154,231L152,235L149,238L144,241L140,244L134,246L129,248L124,250L119,251L115,252L111,253L107,254L103,254L99,254L94,255L90,255L86,255L82,254L78,254L74,253L70,253L66,252L61,251L58,250L56,249L56,248L58,248L62,249L66,250L70,251L74,252L78,252L82,253L86,253L90,253L94,253L99,253L103,252L107,252L111,251L115,250L119,249L123,248L128,246L134,244L139,242L143,240L148,237L151,233L153,229L155,226L156,222L157,218L157,214L157,211L157,207L156,204L156,201L155,197L154,194L153,191L151,188L150,185L148,182L145,179L143,175L140,172L137,170L134,167L130,164L126,161L122,159L118,157L113,155L109,153L104,150L99,148L94,145L89,143L84,140L79,138L74,135L70,132L65,129L60,126L56,123L51,119L47,116L43,112L40,107L37,102L34,97L32,92L31,86L31,79L32,73L34,67L36,62L40,56L45,50L49,45L55,41L60,37L65,33L70,29L75,26L81,22L87,20L94,18L100,16L107,15L114,15L121,15L128,15L134,16L141,18L147,20L153,23L159,27L164,31L169,35L173,40L177,45Z" fill="url(#rose)" opacity="0.58"/><path d="M178,48L175,43L171,38L166,33L161,29L156,26L150,23L144,20L138,17L131,16L124,15L117,15L111,16L104,17L97,18L91,20L85,22L79,25L73,28L68,31L63,36L58,39L52,43L47,48L43,53L39,59L36,65L33,70L32,76L32,82L32,88L34,94L36,99L39,104L42,109L46,113L50,117L54,120L59,124L63,127L68,130L73,133L77,136L82,138L87,141L92,143L97,146L102,148L107,151L111,153L116,155L120,157L124,159L129,162L132,165L136,167L139,170L142,173L145,176L147,180L149,183L151,186L153,189L154,192L155,196L156,199L157,202L158,206L158,209L158,213L158,216L157,220L156,224L154,228L152,232L149,236L146,239L141,242L136,244L131,246L125,248L121,249L117,250L113,251L109,252L105,252L101,253L97,253L92,253L88,253L84,253L80,253L76,252L72,252L68,251L64,250L60,249L56,248L56,247L60,248L64,249L68,250L72,251L76,252L80,252L84,252L88,252L92,252L96,252L101,252L105,251L109,251L113,250L117,249L121,248L125,247L131,245L136,243L141,241L145,238L149,235L151,231L153,227L155,223L156,219L156,216L156,212L156,209L156,205L155,202L154,199L153,196L152,193L151,190L149,187L148,184L146,181L143,178L141,175L138,172L135,169L131,166L128,164L123,161L119,159L115,157L111,155L106,152L101,150L96,148L91,145L86,143L81,140L76,137L72,135L67,132L62,129L57,125L53,122L49,118L45,114L41,110L37,105L34,100L32,95L31,89L30,83L30,76L32,70L34,64L37,59L42,52L46,47L52,43L57,39L62,35L67,31L72,27L78,23L84,20L90,18L97,16L104,15L111,14L117,14L124,14L131,14L138,16L144,18L151,21L156,24L162,28L167,32L171,37L175,42L179,47Z" fill="url(#rose)" opacity="0.65"/><path d="M169,34L165,30L159,26L154,22L148,19L141,16L135,14L128,13L121,13L114,13L107,14L100,15L94,17L87,19L81,21L75,25L70,28L64,32L60,37L54,40L49,45L44,49L39,55L35,61L32,67L30,73L29,80L30,86L31,92L33,98L35,103L38,108L42,113L46,117L50,121L55,124L59,128L64,131L69,134L74,137L79,139L84,142L89,144L93,147L98,149L103,152L108,154L113,156L117,159L121,161L125,163L129,165L133,168L136,171L139,174L142,177L144,180L146,183L148,186L150,189L151,192L152,195L153,198L154,201L155,204L155,207L156,210L156,214L156,217L155,221L154,225L152,229L150,233L147,237L143,239L138,242L133,244L128,246L123,247L119,248L115,249L111,250L107,251L103,251L99,252L94,252L90,252L86,252L82,252L78,251L74,251L70,250L66,250L66,249L70,250L74,250L78,251L82,251L86,251L90,251L94,251L98,251L102,250L106,250L110,249L114,248L118,247L122,246L127,245L133,243L138,241L143,239L147,236L149,232L151,228L153,224L154,220L154,217L154,213L154,210L154,207L153,204L152,201L151,198L150,195L149,192L148,189L146,187L144,184L142,181L140,178L138,175L135,172L132,170L128,167L124,165L120,162L116,160L112,158L107,156L102,153L97,151L93,149L88,146L83,144L78,141L73,138L68,135L63,132L58,129L53,126L49,122L45,118L41,114L37,109L33,104L31,99L29,93L28,86L28,80L29,73L31,67L33,61L38,54L43,49L48,44L53,40L59,36L64,32L69,27L75,23L81,20L87,17L93,15L100,14L107,12L114,12L121,11L128,12L135,12L142,15L148,18L154,21L160,25L165,29L170,33Z" fill="url(#rose)" opacity="0.61"/><path d="M154,21L148,18L142,15L135,12L128,12L121,12L114,12L107,13L100,14L93,15L87,18L81,20L75,24L69,27L64,32L59,36L53,40L48,44L43,49L38,55L34,61L31,67L29,73L28,80L28,86L29,93L31,99L34,104L37,109L41,114L45,118L49,122L54,126L58,129L63,132L68,135L73,138L78,141L83,144L88,146L93,149L98,151L102,153L107,156L112,158L116,160L120,162L124,164L128,167L132,170L135,172L138,175L140,178L143,181L145,184L146,186L148,189L149,192L151,195L152,198L152,201L153,204L154,207L154,210L155,213L154,217L154,221L153,224L151,228L149,232L147,236L143,239L138,241L133,243L127,245L122,246L118,247L114,248L110,249L106,250L102,250L98,251L94,251L90,251L86,251L82,251L78,251L74,250L70,250L71,248L75,249L79,249L83,249L87,249L90,249L94,249L98,249L102,248L106,248L110,247L114,246L118,245L122,244L127,243L132,241L137,239L142,237L146,235L148,231L150,227L151,223L152,219L152,216L152,212L151,209L151,206L150,204L149,201L148,198L147,196L146,193L144,191L143,188L141,186L139,183L137,180L135,178L132,175L129,173L126,170L122,168L119,166L115,163L110,161L106,159L101,157L96,154L91,152L86,149L81,147L76,144L71,141L66,138L61,135L56,132L51,129L47,125L42,121L38,117L34,112L30,106L27,100L25,94L24,87L24,80L25,73L28,66L31,60L35,53L41,47L46,42L52,38L58,35L63,30L68,25L74,21L80,18L86,15L93,13L100,11L107,10L114,9L121,8L128,9L136,9L143,12L149,15L155,18Z" fill="url(#rose)" opacity="0.96"/><path d="M145,28L139,26L133,24L127,23L120,23L114,23L108,23L101,24L95,25L89,26L83,29L78,31L73,34L68,37L63,41L58,45L54,49L50,53L46,59L43,64L42,69L40,74L40,79L40,84L41,88L43,93L45,97L48,101L51,105L54,109L58,112L62,115L66,118L70,121L75,124L79,127L84,130L89,132L94,135L98,137L103,139L108,142L113,144L117,146L122,149L126,151L130,153L135,156L139,159L143,162L147,165L150,169L153,173L156,176L158,180L160,184L161,186L160,187L159,185L157,181L155,177L152,173L149,170L146,166L143,163L139,160L134,157L130,154L126,152L121,150L117,148L112,145L107,143L103,141L98,138L93,136L88,133L83,131L79,128L74,125L70,122L65,119L61,116L57,113L53,110L50,106L47,102L44,98L42,94L40,89L39,84L39,79L39,74L40,69L42,64L45,58L49,53L53,48L58,44L63,41L67,37L72,33L77,30L83,28L89,26L95,24L101,23L107,22L114,22L120,22L127,22L133,23L139,25L145,27Z" fill="#A96B5C" opacity="0.13"/><path d="M101,43L96,43L91,44L86,45L82,46L77,47L73,49L69,52L67,56L65,60L63,65L62,69L62,72L63,75L63,77L64,78L65,80L66,81L67,83L68,85L70,87L72,89L74,91L77,94L80,96L83,99L86,101L90,104L94,106L99,109L103,111L107,114L112,116L117,118L121,121L126,123L131,125L135,127L140,130L145,132L151,136L157,140L163,144L168,149L172,154L176,159L180,165L183,171L185,177L187,183L188,189L188,196L188,202L187,208L186,214L184,220L181,225L178,230L174,235L169,240L165,244L160,247L155,251L150,255L144,259L138,262L131,265L126,266L126,265L131,264L137,261L144,258L149,254L154,250L159,247L164,243L169,239L173,235L176,230L180,225L182,219L184,214L186,208L187,202L187,196L186,190L185,184L183,178L181,172L178,166L175,161L171,155L166,150L162,146L156,141L150,138L144,134L139,131L134,129L130,127L125,125L121,122L116,120L111,118L107,115L102,113L98,110L93,108L89,105L85,103L82,100L78,98L75,95L73,93L70,90L68,88L67,86L65,84L64,82L63,80L62,78L62,77L61,74L61,72L61,69L62,64L64,60L66,56L69,52L72,49L77,47L81,45L86,44L91,43L96,42L101,42Z" fill="#A96B5C" opacity="0.19"/><path d="M56,107L60,110L63,113L67,116L72,119L76,122L81,125L85,127L90,130L95,133L100,135L104,137L109,140L114,142L118,144L123,146L127,149L131,151L136,154L141,157L145,160L149,164L152,167L155,171L158,175L160,179L162,183L161,184L159,180L157,176L154,172L151,168L148,165L144,161L140,158L136,155L131,152L127,150L122,148L118,145L113,143L109,141L104,138L99,136L94,134L89,131L85,129L80,126L75,123L71,120L67,117L63,114L59,111L55,108Z" fill="#A96B5C" opacity="0.18"/><path d="M52,47L47,52L43,57L40,63L38,68L36,74L36,79L36,85L37,90L39,95L41,100L44,104L47,108L51,112L55,116L59,119L63,122L68,125L72,128L77,131L82,133L87,136L92,139L96,141L101,143L106,146L111,148L115,150L120,153L124,155L128,157L128,158L124,156L119,154L115,151L110,149L106,147L101,144L96,142L91,140L86,137L81,134L77,132L72,129L67,126L63,123L58,120L54,116L50,113L47,109L43,105L40,100L38,95L36,90L35,85L35,79L35,74L37,68L39,63L43,57L47,51L51,47Z" fill="#A96B5C" opacity="0.26"/><path d="M141,30L135,29L129,28L123,27L117,26L111,26L105,27L99,28L93,29L87,30L82,32L76,35L71,38L67,41L62,44L58,48L54,53L51,58L48,63L46,68L45,72L44,76L44,81L45,85L46,89L48,93L50,97L53,100L56,104L59,107L63,110L67,113L71,116L75,119L79,122L84,124L89,127L93,129L98,132L103,134L108,137L112,139L117,141L122,143L126,146L130,148L135,150L140,153L144,157L148,160L152,164L156,168L159,172L161,176L164,180L165,184L167,189L168,193L169,198L169,202L169,207L169,211L168,215L167,220L165,224L163,228L160,232L157,236L153,240L149,244L145,247L139,249L134,252L127,254L123,256L119,257L114,258L110,259L106,259L101,260L97,260L97,259L101,259L105,258L110,258L114,257L118,256L123,255L127,253L133,251L139,249L144,246L149,243L153,239L156,236L159,232L162,228L164,223L165,219L166,215L167,211L167,206L167,202L167,198L166,194L165,189L163,185L161,181L159,177L157,173L154,169L151,165L147,162L143,159L139,155L134,152L129,150L125,148L121,145L116,143L111,141L107,139L102,136L97,134L92,131L88,129L83,126L78,124L74,121L69,118L65,115L61,112L58,109L54,105L51,102L48,98L46,94L44,90L43,86L42,81L42,76L43,72L44,67L46,62L49,57L53,52L57,48L61,44L66,40L71,37L76,34L81,31L87,29L92,27L98,26L105,25L111,25L117,25L123,25L129,26L135,27L141,29Z" fill="#A96B5C" opacity="0.15"/><path d="M34,79L34,85L35,91L37,96L39,101L42,105L46,110L49,114L53,117L58,121L62,124L67,127L71,130L76,133L81,135L86,138L91,140L96,143L100,145L105,148L110,150L115,152L119,154L123,157L127,159L132,161L136,164L139,167L142,170L145,173L148,177L150,180L152,183L154,187L155,190L156,192L154,192L154,191L152,187L151,184L149,181L146,178L144,175L141,172L138,169L134,166L131,163L126,160L122,158L118,156L114,154L109,152L104,149L100,147L95,144L90,142L85,139L80,137L75,134L70,131L66,128L61,125L57,122L52,119L48,115L44,111L41,106L38,102L35,97L33,91L32,85L32,79Z" fill="#A96B5C" opacity="0.15"/><path d="M132,41L127,40L122,39L116,38L111,38L106,38L100,38L95,39L90,39L85,41L80,42L75,44L71,47L67,50L64,54L61,58L59,62L57,67L57,71L57,74L57,77L58,79L58,81L59,84L61,86L62,89L64,91L67,94L69,96L72,99L75,102L79,104L83,107L87,110L91,112L95,115L100,117L104,120L109,122L114,124L118,127L123,129L128,131L132,133L137,136L142,138L148,142L153,146L158,150L163,154L167,159L170,164L174,169L176,174L179,179L180,185L181,191L182,196L182,202L181,208L180,213L178,218L176,223L173,228L170,233L166,237L162,241L158,245L153,248L148,252L142,256L136,259L130,261L125,263L121,264L120,263L125,262L130,260L136,258L142,255L147,251L152,248L157,244L162,241L166,237L169,232L172,228L175,223L177,218L179,213L180,207L180,202L180,196L180,191L179,185L177,180L175,175L172,170L169,165L165,160L161,155L157,151L152,147L147,143L141,140L136,137L131,135L127,133L122,131L118,128L113,126L108,124L104,121L99,119L94,116L90,114L86,111L82,109L78,106L74,103L71,101L68,98L65,95L63,92L61,90L59,87L58,84L57,82L56,79L55,77L55,73L55,70L56,67L58,62L60,57L63,53L66,49L70,46L75,43L79,41L84,40L89,38L95,37L100,37L105,36L111,36L116,37L122,37L127,38L133,39Z" fill="#A96B5C" opacity="0.23"/><path d="M139,27L133,26L126,25L120,24L114,24L108,24L101,25L95,26L89,28L84,30L78,32L73,35L68,38L64,42L59,45L55,49L51,54L47,59L45,65L43,69L42,74L42,79L42,83L43,88L45,92L47,96L49,100L52,104L56,107L59,111L63,114L67,117L71,120L76,123L80,125L85,128L90,131L94,133L99,136L104,138L109,140L114,143L118,145L123,147L127,149L131,151L136,154L140,157L145,161L148,164L147,165L143,162L139,159L135,156L130,153L126,151L122,149L117,146L113,144L108,142L103,139L98,137L94,135L89,132L84,129L79,127L75,124L70,121L66,118L62,115L58,112L54,109L51,105L48,101L45,97L43,93L41,88L40,84L40,79L40,74L42,69L43,64L46,59L50,54L54,49L58,45L63,41L68,37L73,34L78,31L83,29L89,27L95,25L101,24L108,23L114,23L120,23L127,23L133,24L139,26Z" fill="#A96B5C" opacity="0.26"/><path d="M71,94L74,97L77,100L80,102L84,105L88,107L92,110L97,112L101,115L106,117L110,120L115,122L120,124L124,127L129,129L133,131L138,133L143,136L149,140L148,141L142,138L137,135L133,133L128,131L123,128L119,126L114,124L109,121L105,119L100,117L96,114L91,112L87,109L83,106L79,104L76,101L73,99L70,96Z" fill="#A96B5C" opacity="0.25"/><path d="M72,124L76,127L81,129L86,132L91,135L95,137L100,140L105,142L110,144L114,147L119,149L123,151L128,153L132,156L137,158L141,162L144,165L148,168L151,172L153,175L156,179L158,183L160,187L161,190L162,194L163,198L164,202L164,206L164,210L163,214L162,218L161,222L160,226L159,226L160,222L161,218L162,214L162,210L162,206L162,202L162,198L161,195L160,191L158,187L156,183L154,180L152,176L149,173L146,169L143,166L140,163L136,160L131,157L127,155L123,152L118,150L114,148L109,146L104,143L100,141L95,139L90,136L85,134L80,131L75,128L71,125Z" fill="#F3D9D1" opacity="0.48"/><path d="M72,103L75,105L79,108L83,111L87,113L92,116L96,118L101,121L105,123L110,126L115,128L120,130L124,132L129,135L133,137L138,139L143,142L149,146L154,150L158,154L163,158L166,163L170,168L171,170L170,171L169,168L165,164L162,159L157,155L153,151L148,147L143,143L137,140L133,138L128,136L124,134L119,131L114,129L110,127L105,124L100,122L96,120L91,117L87,114L82,112L78,109L75,107L71,104Z" fill="#F3D9D1" opacity="0.42"/><path d="M51,73L51,76L51,80L52,83L53,86L54,90L56,93L59,96L61,99L64,102L67,105L71,108L75,110L79,113L83,116L87,118L92,121L96,123L101,126L106,128L111,131L115,133L120,135L125,137L129,140L133,142L138,144L144,148L149,151L153,155L157,159L161,163L163,165L162,166L160,164L156,160L152,156L148,152L143,149L138,146L133,143L128,141L124,139L119,137L115,134L110,132L105,130L100,127L96,125L91,122L87,120L82,117L78,114L74,112L70,109L66,106L63,103L60,100L57,97L55,94L53,90L51,87L50,84L49,80L49,76L49,73Z" fill="#F3D9D1" opacity="0.54"/><path d="M47,96L49,100L52,104L56,107L59,111L63,114L67,117L71,120L76,123L80,125L85,128L90,131L94,133L99,135L104,138L109,140L114,143L118,145L123,147L127,149L131,151L136,154L141,157L145,161L148,164L152,168L155,171L158,175L160,179L161,181L160,182L159,180L157,176L154,172L151,168L148,165L144,161L140,158L136,155L131,152L127,150L122,148L118,146L113,143L108,141L104,139L99,136L94,134L89,131L84,129L80,126L75,123L71,121L66,118L62,115L59,111L55,108L52,105L49,101L46,97Z" fill="#F3D9D1" opacity="0.41"/><path d="M87,115L91,117L95,120L100,122L105,125L109,127L114,129L119,132L124,134L128,136L133,138L137,141L142,144L148,147L153,151L157,155L161,159L165,164L168,168L171,173L173,178L175,184L177,189L178,194L178,199L178,205L177,210L177,212L175,212L176,210L176,205L176,199L176,194L175,189L174,184L172,179L170,174L167,169L164,165L160,160L156,156L152,152L147,149L142,145L136,142L132,140L127,138L123,135L118,133L113,131L109,128L104,126L99,124L95,121L90,119L86,116Z" fill="#F3D9D1" opacity="0.61"/><path d="M37,87L39,92L41,97L44,101L47,105L50,109L54,113L58,116L62,120L66,123L71,126L75,128L80,131L85,134L90,136L94,139L99,141L104,144L109,146L114,148L118,151L123,153L125,154L124,155L122,154L118,151L113,149L109,147L104,144L99,142L94,140L89,137L84,135L80,132L75,129L70,126L66,123L61,120L57,117L53,114L49,110L46,106L43,102L40,97L38,92L37,87Z" fill="#F3D9D1" opacity="0.50"/><circle cx="23" cy="240" r="1.1" fill="#C98F82" opacity="0.7"/><circle cx="22" cy="253" r="1.7" fill="#C98F82" opacity="0.7"/><circle cx="31" cy="243" r="0.8" fill="#C98F82" opacity="0.7"/><circle cx="36" cy="251" r="1.3" fill="#C98F82" opacity="0.7"/><circle cx="39" cy="247" r="2.0" fill="#C98F82" opacity="0.7"/><circle cx="17" cy="231" r="2.3" fill="#C98F82" opacity="0.7"/><circle cx="46" cy="253" r="2.2" fill="#C98F82" opacity="0.7"/></g>
  <path d="M258.7 182.9Q251.7 182.9 245.2 180.8Q238.8 178.8 235 175.6L238.9 166.9Q242.5 169.8 247.8 171.7Q253.2 173.6 258.7 173.6Q263.5 173.6 266.4 172.5Q269.3 171.5 270.7 169.7Q272.1 168 272.1 165.7Q272.1 163 270.1 161.3Q268.1 159.6 265 158.7Q261.8 157.7 258 156.8Q254.2 155.9 250.4 154.8Q246.5 153.6 243.4 151.8Q240.3 149.9 238.3 146.8Q236.3 143.7 236.3 138.9Q236.3 134 238.9 129.9Q241.5 125.8 246.9 123.4Q252.3 120.9 260.6 120.9Q266 120.9 271.3 122.3Q276.6 123.7 280.6 126.3L277.1 135Q273 132.6 268.7 131.4Q264.4 130.2 260.5 130.2Q255.8 130.2 252.9 131.3Q250.1 132.5 248.7 134.3Q247.4 136.1 247.4 138.4Q247.4 141.2 249.3 142.8Q251.3 144.5 254.4 145.4Q257.5 146.4 261.4 147.3Q265.3 148.2 269.1 149.3Q272.9 150.4 276.1 152.2Q279.2 154.1 281.1 157.1Q283.1 160.2 283.1 165Q283.1 169.8 280.5 173.9Q277.8 178 272.4 180.4Q267 182.9 258.7 182.9M373.3 182L328.2 182L328.2 121.8L372.1 121.8L372.1 131.2L339.4 131.2L339.4 146.8L368.4 146.8L368.4 156L339.4 156L339.4 172.6L373.3 172.6M422.8 182L411.3 182L438.4 121.8L449.4 121.8L476.6 182L464.9 182L458.8 168.1L428.7 168.1L422.8 182M432.5 159.3L455.1 159.3L443.8 133M565 182L513.7 182L513.7 174.5L549.1 131.3L514.3 131.3L514.3 121.8L563.9 121.8L563.9 129.3L528.4 172.5L565 172.5M637.4 182.9Q630.4 182.9 624.5 180.5Q618.5 178.2 614.1 174Q609.7 169.9 607.3 164.2Q604.9 158.6 604.9 151.9Q604.9 145.2 607.3 139.6Q609.7 133.9 614.1 129.8Q618.5 125.6 624.5 123.3Q630.4 120.9 637.4 120.9Q644.4 120.9 650.3 123.3Q656.2 125.6 660.6 129.8Q665 133.9 667.4 139.6Q669.8 145.2 669.8 151.9Q669.8 158.6 667.4 164.3Q665 170 660.6 174.1Q656.2 178.2 650.3 180.5Q644.4 182.9 637.4 182.9M637.4 173.1Q641.9 173.1 645.8 171.5Q649.6 170 652.5 167.1Q655.3 164.2 656.9 160.4Q658.5 156.5 658.5 151.9Q658.5 147.3 656.9 143.4Q655.3 139.6 652.5 136.7Q649.6 133.8 645.8 132.3Q641.9 130.7 637.4 130.7Q632.8 130.7 629 132.3Q625.1 133.8 622.3 136.7Q619.4 139.6 617.8 143.4Q616.2 147.3 616.2 151.9Q616.2 156.5 617.8 160.3Q619.4 164.2 622.2 167.1Q625.1 170 628.9 171.5Q632.8 173.1 637.4 173.1" fill="#3B3B40"/>
</svg>